# xmcd
#
# Track frame offsets:
#	150
#	14198
#	35371
#	62490
#	82563
#	103035
#	122168
#	149144
#	168863
#	191974
#	208874
#	232368
#	254417
#	271908
#	283639
#	301726
#
# Disc length: 4388 seconds
#
# Revision: 0
# Processed by: cddbd v1.5.2PL0 Copyright (c) Steve Scherf et al.
# Submitted via: EZCDAudioConverter 2.1.7.1
#
DISCID=ee112210
DTITLE=Fab Samperi - Power Bossa Remixed
DYEAR=1900
DGENRE=
TTITLE0=Fab Samperi featuring Jonnathan Molina - Listen Up [Stickybuds Remix]
TTITLE1=Fab Samperi featuring Bella Wagner  - Stand Back [Mo'Horizons Restyle]
TTITLE2=Fab Samperi - Jazz Di Mezzaluna [Smoove Remix]
TTITLE3=Fab Samperi featuring Bella Wagner  - Stand Back [Skeewiff Remix]
TTITLE4=Fab Samperi featuring Jonnathan Molina - Listen Up [JFB Remix]
TTITLE5=Fab Samperi featuring John Turrell  - Heaven Sent [Basement Freaks Rem
TTITLE5=ix]
TTITLE6=Fab Samperi featuring Jonnathan Molina - Listen Up [DJ Love Remix]
TTITLE7=Fab Samperi - In The River [CMC and Silenta Remix]
TTITLE8=Fab Samperi - Alcoholic Drinks [The Captain Remix]
TTITLE9=Fab Samperi - In The River [Ursula 1000 Remix]
TTITLE10=Fab Samperi - BB Funk [Sly Players Remix]
TTITLE11=Fab Samperi featuring John Turrell  - Everyman [Timewarp Inc. Remix]
TTITLE12=Fab Samperi featuring Atypical - Prophets Before Profits
TTITLE13=Smoove and Turrell - Hard Work [Fab Samperi Remix]
TTITLE14=The Soul Session - Soul Desire [Fab Samperi Remix]
TTITLE15=Fab Samperi - Jazz Di Mezzaluna [Smoove Instrumental Remix]
EXTD=
EXTT0=
EXTT1=
EXTT2=
EXTT3=
EXTT4=
EXTT5=
EXTT6=
EXTT7=
EXTT8=
EXTT9=
EXTT10=
EXTT11=
EXTT12=
EXTT13=
EXTT14=
EXTT15=
PLAYORDER=
